<?xml version="1.0" standalone="no"?>
<!DOCTYPE svg PUBLIC "-//W3C//DTD SVG 20010904//EN"
 "http://www.w3.org/TR/2001/REC-SVG-20010904/DTD/svg10.dtd">
<svg version="1.0" xmlns="http://www.w3.org/2000/svg"
 width="220.000000pt" height="179.000000pt" viewBox="0 0 220.000000 179.000000"
 preserveAspectRatio="xMidYMid meet">

<g transform="translate(0.000000,179.000000) scale(0.100000,-0.100000)"
fill="#000000" stroke="none">
<path d="M711 1653 l-22 -18 1 -739 c0 -672 2 -741 17 -758 20 -23 49 -23 198
1 66 11 163 24 215 31 52 7 154 21 225 31 72 11 182 26 245 34 254 32 395 56
412 72 17 15 18 54 18 584 0 550 -1 569 -19 586 -21 19 -67 27 -551 93 -118
16 -240 32 -270 35 -30 4 -122 17 -205 30 -246 38 -239 38 -264 18z m210 -133
c30 -6 128 -20 219 -31 91 -11 207 -27 258 -35 51 -8 146 -21 210 -29 144 -18
251 -34 275 -41 16 -5 17 -37 17 -490 l0 -484 -22 -10 c-13 -5 -97 -18 -188
-30 -91 -11 -241 -32 -335 -45 -225 -33 -528 -75 -537 -75 -5 0 -8 288 -8 640
l0 640 29 0 c15 0 53 -5 82 -10z"/>
<path d="M1147 1092 c-110 -127 -155 -187 -150 -196 4 -8 38 -47 74 -88 37
-40 101 -113 144 -163 43 -49 81 -94 86 -99 5 -6 9 22 9 67 l0 77 -90 104
c-49 57 -90 108 -90 113 0 5 21 34 48 64 136 155 133 150 130 230 l-3 73 -158
-182z"/>
<path d="M1420 1173 c0 -68 0 -68 51 -123 81 -88 121 -139 117 -149 -1 -5 -40
-50 -86 -100 l-83 -90 3 -71 3 -71 153 165 c83 91 152 168 152 172 0 7 -34 46
-180 205 -57 63 -110 118 -117 122 -10 6 -13 -7 -13 -60z"/>
<path d="M449 1584 c-12 -14 -14 -125 -14 -689 0 -648 1 -674 19 -694 22 -24
54 -27 82 -7 18 14 19 34 21 683 2 524 0 673 -10 693 -16 32 -76 40 -98 14z"/>
<path d="M201 1434 c-21 -26 -21 -36 -21 -544 0 -508 0 -518 21 -544 13 -17
30 -26 49 -26 56 0 55 -14 55 572 0 523 -1 540 -19 554 -30 21 -62 17 -85 -12z"/>
</g>
</svg>
