<?xml version="1.0" standalone="no"?>
<!DOCTYPE svg PUBLIC "-//W3C//DTD SVG 20010904//EN"
 "http://www.w3.org/TR/2001/REC-SVG-20010904/DTD/svg10.dtd">
<svg version="1.0" xmlns="http://www.w3.org/2000/svg"
 width="345.000000pt" height="110.000000pt" viewBox="0 0 345.000000 110.000000"
 preserveAspectRatio="xMidYMid meet">

<g transform="translate(0.000000,110.000000) scale(0.100000,-0.100000)"
fill="#000000" stroke="none">
<path d="M358 1004 c-9 -9 -11 -865 -2 -888 10 -26 -6 -27 559 54 115 17 213
34 217 38 5 5 8 161 9 347 0 294 -1 341 -15 350 -8 7 -62 17 -118 24 -57 7
-191 26 -298 41 -232 34 -342 45 -352 34z m243 -88 c90 -14 218 -32 284 -41
66 -8 135 -18 153 -21 l32 -6 0 -294 0 -293 -42 -5 c-24 -3 -137 -19 -253 -35
-306 -43 -345 -48 -350 -43 -9 9 -5 762 4 762 5 0 82 -11 172 -24z"/>
<path d="M710 774 c-3 -7 -33 -43 -66 -80 -34 -38 -73 -83 -87 -99 l-25 -30
20 -25 c11 -14 36 -43 56 -65 20 -21 54 -59 74 -83 l38 -43 0 44 c0 38 -6 51
-55 107 l-55 63 31 36 c79 95 80 98 77 143 -2 24 -5 38 -8 32z"/>
<path d="M780 725 c0 -29 9 -46 48 -88 26 -29 50 -53 55 -55 16 -8 4 -28 -48
-83 -46 -48 -55 -64 -55 -93 0 -20 3 -36 8 -36 8 0 162 163 175 186 5 9 -20
43 -78 106 -47 51 -90 95 -96 96 -5 2 -9 -13 -9 -33z"/>
<path d="M210 961 c-6 -13 -10 -160 -10 -410 0 -418 1 -427 50 -414 20 5 20
13 20 412 0 413 -1 431 -37 431 -7 0 -17 -9 -23 -19z"/>
<path d="M1628 901 c-29 -26 -33 -35 -32 -77 1 -41 5 -52 35 -76 72 -60 169
-12 169 84 0 38 -9 53 -30 53 -8 0 -19 10 -25 23 -15 34 -75 31 -117 -7z m112
-31 c28 -28 25 -64 -7 -89 -59 -47 -122 24 -77 87 19 28 57 29 84 2z"/>
<path d="M1765 920 c3 -5 8 -10 11 -10 2 0 4 5 4 10 0 6 -5 10 -11 10 -5 0 -7
-4 -4 -10z"/>
<path d="M62 878 c-14 -14 -18 -624 -3 -646 4 -8 19 -12 32 -10 l24 3 0 330
c0 323 0 330 -20 333 -11 1 -26 -3 -33 -10z"/>
<path d="M1246 854 c-14 -14 -16 -49 -14 -272 l3 -257 28 -13 c19 -9 36 -11
55 -4 24 8 27 14 30 60 2 29 6 52 10 52 4 0 38 -27 75 -60 38 -33 73 -60 80
-60 23 0 68 51 65 73 -2 11 -28 41 -58 65 -30 25 -56 48 -58 52 -2 4 20 30 48
56 l51 49 -26 38 c-14 20 -34 37 -43 37 -10 0 -43 -22 -74 -50 -31 -27 -59
-50 -62 -50 -3 0 -6 62 -6 138 0 94 -4 142 -12 150 -17 17 -74 15 -92 -4z"/>
<path d="M2572 858 c-8 -8 -12 -47 -12 -110 0 -90 -8 -116 -25 -87 -12 18 -57
30 -93 23 -50 -10 -127 -86 -141 -142 -7 -23 -9 -58 -5 -77 9 -51 58 -118 99
-138 44 -21 108 -22 139 -2 21 14 24 14 29 0 8 -20 90 -21 106 -1 9 10 11 85
9 270 -3 281 -2 276 -63 276 -17 0 -36 -5 -43 -12z m-38 -320 c48 -68 -24
-140 -92 -92 -27 18 -30 69 -5 96 23 26 78 24 97 -4z"/>
<path d="M2772 858 c-9 -9 -12 -76 -12 -240 0 -283 2 -291 85 -308 82 -17 107
-4 103 52 -3 40 -11 50 -50 62 -16 5 -18 24 -18 210 0 173 -2 207 -16 220 -18
19 -75 21 -92 4z"/>
<path d="M1661 671 c-20 -20 -21 -32 -21 -174 0 -175 5 -191 64 -191 20 0 42
6 49 13 15 15 17 335 2 350 -6 6 -25 13 -42 17 -24 5 -36 1 -52 -15z"/>
<path d="M1869 683 c-10 -2 -20 -14 -23 -26 -10 -37 -7 -294 4 -322 9 -24 14
-26 57 -23 l48 3 5 107 c5 112 14 134 55 138 74 8 85 -9 85 -129 0 -75 4 -102
15 -111 15 -13 77 -16 94 -5 14 8 14 207 1 257 -14 49 -76 104 -129 113 -36 6
-48 3 -82 -19 -29 -20 -39 -23 -39 -11 0 26 -45 41 -91 28z"/>
<path d="M3085 658 c-56 -37 -84 -91 -85 -161 0 -109 64 -183 175 -201 53 -9
145 10 169 34 19 19 19 21 3 56 -16 32 -21 35 -45 29 -15 -4 -50 -9 -79 -12
-44 -4 -54 -2 -75 19 l-23 23 103 5 c98 5 105 6 128 33 29 34 30 68 4 122 -28
58 -79 85 -162 85 -56 0 -71 -4 -113 -32z m168 -100 c19 -29 -9 -48 -69 -48
-59 0 -66 9 -38 48 13 19 24 22 56 20 25 -2 45 -10 51 -20z"/>
</g>
</svg>
